<?xml version="1.0" encoding="UTF-8"?>
<svg width="300px" height="160px" viewBox="0 0 300 160" version="1.1" xmlns="http://www.w3.org/2000/svg" xmlns:xlink="http://www.w3.org/1999/xlink">
    <title>github</title>
    <g id="github" stroke="none" stroke-width="1" fill="none" fill-rule="evenodd">
        <g id="Github" transform="translate(42.000000, 51.000000)" fill="#111111">
            <path d="M42.1686,25.1928 L24.0084,25.1928 C23.5398,25.1928 23.16,25.5726 23.16,26.0418 L23.16,34.9206 C23.16,35.3886 23.5398,35.7702 24.0084,35.7702 L31.0926,35.7702 L31.0926,46.8012 C31.0926,46.8012 29.502,47.3436 25.104,47.3436 C19.9158,47.3436 12.6678,45.4482 12.6678,29.5098 C12.6678,13.5684 20.2152,11.4708 27.3006,11.4708 C33.4344,11.4708 36.0762,12.5502 37.758,13.071 C38.2866,13.2324 38.775,12.7068 38.775,12.2376 L40.8006,3.6594 C40.8006,3.4398 40.7262,3.1752 40.4766,2.9964 C39.7938,2.5092 35.628,0.1782 25.104,0.1782 C12.981,0.1782 0.5448,5.3358 0.5448,30.1314 C0.5448,54.927 14.7828,58.6218 26.781,58.6218 C36.7152,58.6218 42.7416,54.3768 42.7416,54.3768 C42.99,54.2394 43.017,53.8926 43.017,53.7336 L43.017,26.0418 C43.017,25.5726 42.6372,25.1928 42.1686,25.1928" id="Fill-11"></path>
            <path d="M135.759,3.1488 C135.759,2.6766 135.3846,2.2956 134.9154,2.2956 L124.6902,2.2956 C124.2234,2.2956 123.8436,2.6766 123.8436,3.1488 C123.8436,3.1512 123.8466,22.9098 123.8466,22.9098 L107.9076,22.9098 L107.9076,3.1488 C107.9076,2.6766 107.532,2.2956 107.064,2.2956 L96.8394,2.2956 C96.3744,2.2956 95.9946,2.6766 95.9946,3.1488 L95.9946,56.6556 C95.9946,57.1278 96.3744,57.5118 96.8394,57.5118 L107.064,57.5118 C107.532,57.5118 107.9076,57.1278 107.9076,56.6556 L107.9076,33.7692 L123.8466,33.7692 C123.8466,33.7692 123.8184,56.6538 123.8184,56.6556 C123.8184,57.1278 124.1976,57.5118 124.6656,57.5118 L134.9148,57.5118 C135.3834,57.5118 135.7578,57.1278 135.759,56.6556 L135.759,3.1488" id="Fill-13"></path>
            <path d="M61.464,10.1706 C61.464,6.4884 58.5126,3.513 54.8706,3.513 C51.2322,3.513 48.2778,6.4884 48.2778,10.1706 C48.2778,13.8486 51.2322,16.8318 54.8706,16.8318 C58.5126,16.8318 61.464,13.8486 61.464,10.1706" id="Fill-14"></path>
            <path d="M60.7332,45.369 C60.7332,43.9974 60.7332,20.67 60.7332,20.67 C60.7332,20.2008 60.3546,19.8174 59.8872,19.8174 L49.6938,19.8174 C49.2264,19.8174 48.8082,20.2998 48.8082,20.769 C48.8082,20.769 48.8082,50.4894 48.8082,56.1546 C48.8082,57.1944 49.4562,57.504 50.2944,57.504 C50.2944,57.504 54.6456,57.504 59.478,57.504 C60.486,57.504 60.7332,57.009 60.7332,56.1378 C60.7332,54.2412 60.7332,46.8108 60.7332,45.369" id="Fill-15"></path>
            <path d="M174.6192,19.8984 L164.4726,19.8984 C164.0076,19.8984 163.6284,20.2818 163.6284,20.7534 L163.6284,46.9896 C163.6284,46.9896 161.0502,48.8754 157.3914,48.8754 C153.7332,48.8754 152.7624,47.2152 152.7624,43.6332 C152.7624,40.0464 152.7624,20.7534 152.7624,20.7534 C152.7624,20.2818 152.3844,19.8984 151.9182,19.8984 L141.6198,19.8984 C141.1554,19.8984 140.7744,20.2818 140.7744,20.7534 C140.7744,20.7534 140.7744,34.725 140.7744,45.3654 C140.7744,56.0064 146.7048,58.6098 154.863,58.6098 C161.5566,58.6098 166.953,54.912 166.953,54.912 C166.953,54.912 167.2098,56.8608 167.3262,57.0918 C167.442,57.3222 167.745,57.555 168.0726,57.555 L174.624,57.5256 C175.0884,57.5256 175.4694,57.1416 175.4694,56.6718 L175.4658,20.7534 C175.4658,20.2818 175.0872,19.8984 174.6192,19.8984" id="Fill-16"></path>
            <path d="M198.3504,48.843 C194.8308,48.7362 192.4434,47.139 192.4434,47.139 L192.4434,30.1944 C192.4434,30.1944 194.7984,28.7508 197.688,28.4928 C201.342,28.1658 204.8628,29.2692 204.8628,37.986 C204.8628,47.1774 203.274,48.9918 198.3504,48.843 Z M202.3524,18.696 C196.5894,18.696 192.6696,21.2676 192.6696,21.2676 L192.6696,3.1488 C192.6696,2.6766 192.2916,2.2956 191.826,2.2956 L181.5714,2.2956 C181.1052,2.2956 180.7266,2.6766 180.7266,3.1488 L180.7266,56.6556 C180.7266,57.1278 181.1052,57.5118 181.5726,57.5118 C181.5738,57.5118 188.685,57.5118 188.6874,57.5118 C189.0078,57.5118 189.2502,57.3468 189.4296,57.0576 C189.6066,56.7702 189.8616,54.5904 189.8616,54.5904 C189.8616,54.5904 194.0544,58.5636 201.9918,58.5636 C211.311,58.5636 216.6552,53.8368 216.6552,37.3446 C216.6552,20.8512 208.1196,18.696 202.3524,18.696 L202.3524,18.696 Z" id="Fill-17"></path>
            <path d="M90.1212,19.8126 L82.4508,19.8126 C82.4508,19.8126 82.4394,9.6816 82.4394,9.6798 C82.4394,9.2958 82.2414,9.1044 81.798,9.1044 L71.346,9.1044 C70.9392,9.1044 70.7214,9.2832 70.7214,9.6738 L70.7214,20.145 C70.7214,20.145 65.4834,21.4098 65.1288,21.5118 C64.7766,21.6138 64.5168,21.939 64.5168,22.3272 L64.5168,28.9074 C64.5168,29.3808 64.8948,29.7624 65.3622,29.7624 L70.7214,29.7624 C70.7214,29.7624 70.7214,36.645 70.7214,45.5928 C70.7214,57.351 78.969,58.506 84.534,58.506 C87.0774,58.506 90.1194,57.6894 90.6216,57.504 C90.9252,57.3924 91.1016,57.0774 91.1016,56.7366 L91.1106,49.4982 C91.1106,49.026 90.7116,48.6438 90.2628,48.6438 C89.8152,48.6438 88.6722,48.8256 87.495,48.8256 C83.727,48.8256 82.4508,47.0736 82.4508,44.8062 C82.4508,42.5406 82.4502,29.7624 82.4502,29.7624 L90.1212,29.7624 C90.5886,29.7624 90.9672,29.3808 90.9672,28.9074 L90.9672,20.6652 C90.9672,20.193 90.5886,19.8126 90.1212,19.8126" id="Fill-18"></path>
        </g>
    </g>
</svg>