<?xml version="1.0" encoding="UTF-8"?>
<svg width="300px" height="160px" viewBox="0 0 300 160" version="1.1" xmlns="http://www.w3.org/2000/svg" xmlns:xlink="http://www.w3.org/1999/xlink">
    <title>netlify</title>
    <g id="netlify" stroke="none" stroke-width="1" fill="none" fill-rule="evenodd">
        <g id="netlify-ar21" transform="translate(38.000000, 44.000000)" fill="#111111" fill-rule="nonzero">
            <path d="M91.1774,26.306874 L91.3531447,29.4521483 C93.3579157,27.0194987 95.9899821,25.8031739 99.2479131,25.8031739 C104.893563,25.8031739 107.767116,29.0486142 107.867135,35.5394991 L107.867135,53.5239401 L101.779954,53.5239401 L101.779954,35.8915184 C101.779954,34.1643359 101.408431,32.8864796 100.665397,32.0550838 C99.9223599,31.2251207 98.7063494,30.8101392 97.0188005,30.8101392 C94.5624935,30.8101392 92.732049,31.9262979 91.5317612,34.1557498 L91.5317612,53.5239401 L85.4417165,53.5239401 L85.4417165,26.306874 L91.1802467,26.306874 L91.1774,26.306874 Z M126.011531,54.0276424 C122.153456,54.0276424 119.024129,52.8084562 116.627839,50.368649 C114.230114,47.928844 113.031255,44.6791095 113.031255,40.6208763 L113.031255,39.8667557 C113.031255,37.1507718 113.552806,34.7224143 114.597347,32.5845444 C115.640453,30.4466745 117.107952,28.7824543 118.995553,27.5904552 C120.883153,26.4013195 122.987946,25.8060352 125.311363,25.8060352 C129.002255,25.8060352 131.855801,26.9880175 133.867719,29.3519801 C135.882488,31.7173754 136.888449,35.0615554 136.888449,39.3888099 L136.888449,41.8543734 L119.169879,41.8543734 C119.355637,44.1009976 120.101533,45.8782641 121.413278,47.1861709 C122.725024,48.4940778 124.375426,49.1480322 126.363045,49.1480322 C129.152295,49.1480322 131.424271,48.0175647 133.178978,45.7523375 L136.461199,48.8976118 C135.375227,50.5231954 133.926301,51.7853102 132.114435,52.6825296 C130.301142,53.579749 128.267791,54.0276424 126.012959,54.0276424 L126.011531,54.0276424 Z M125.285643,30.7114038 C123.613812,30.7114038 122.266341,31.2981019 121.238951,32.471498 C120.210128,33.6448942 119.55569,35.2804926 119.271334,37.3768645 L130.874138,37.3768645 L130.874138,36.9232485 C130.739827,34.8769585 130.19683,33.3315115 129.245174,32.2826092 C128.292085,31.2351375 126.973196,30.7114038 125.285643,30.7114038 Z M149.241435,19.692928 L149.241435,26.3083068 L154.028302,26.3083068 L154.028302,30.8358976 L149.241435,30.8358976 L149.241435,46.0285143 C149.241435,47.0673998 149.447196,47.8172283 149.855871,48.2794326 C150.264539,48.7402041 150.996141,48.9705909 152.049256,48.9705909 C152.766238,48.9685967 153.480622,48.8840801 154.178341,48.7187398 L154.178341,53.4480997 C152.792289,53.8344615 151.456251,54.0262117 150.168803,54.0262117 C145.491955,54.0262117 143.152819,51.4361544 143.152819,46.254609 L143.152819,30.8344669 L138.688883,30.8344669 L138.688883,26.306874 L143.149961,26.306874 L143.149961,19.6914973 L149.238577,19.6914973 L149.241435,19.692928 Z M165.155279,53.5253708 L159.065236,53.5253708 L159.065236,14.8891583 L165.155279,14.8891583 L165.155279,53.5253708 Z M178.261304,53.5253708 L172.171259,53.5253708 L172.171259,26.3083068 L178.261304,26.3083068 L178.261304,53.5253708 Z M171.795457,19.2393099 C171.795457,18.3020232 172.09124,17.5221442 172.684241,16.9011037 C173.278672,16.2814938 174.126017,15.9709725 175.227712,15.9709725 C176.330838,15.9709725 177.182472,16.2814938 177.785476,16.9011037 C178.385622,17.5221442 178.685695,18.3020232 178.685695,19.2407406 C178.685695,20.1622856 178.385622,20.9292864 177.785476,21.5417409 C177.182472,22.1541974 176.330838,22.4604246 175.227712,22.4604246 C174.126017,22.4604246 173.278672,22.1541974 172.684241,21.5417409 C172.09124,20.9307171 171.795457,20.1622856 171.795457,19.2407406 L171.795457,19.2393099 Z M187.031995,53.5253708 L187.031995,30.8344669 L182.896708,30.8344669 L182.896708,26.306874 L187.031995,26.306874 L187.031995,23.8169848 C187.031995,20.7976372 187.866484,18.4680171 189.536886,16.8238305 C191.208723,15.1810767 193.54643,14.3596998 196.552862,14.3596998 C197.623124,14.3596998 198.759117,14.509952 199.962267,14.8118851 L199.812287,19.5913292 C199.043828,19.4484921 198.263241,19.381397 197.481732,19.3909928 C194.573883,19.3909928 193.120672,20.8906499 193.120672,23.8928273 L193.120672,26.306874 L198.633436,26.306874 L198.633436,30.8344669 L193.120672,30.8344669 L193.120672,53.5239401 L187.032058,53.5239401 L187.031995,53.5253708 Z M212.566741,44.7721222 L218.079488,26.3083068 L224.56964,26.3083068 L213.795613,57.6508604 C212.140932,62.2285395 209.334526,64.5180882 205.374993,64.5180882 C204.489064,64.5180882 203.511701,64.3664115 202.442864,64.0644721 L202.442864,59.3351143 L203.595992,59.4109631 C205.132092,59.4109631 206.289514,59.1304922 207.066833,58.5681218 C207.842749,58.0071801 208.457164,57.0641707 208.908717,55.7390916 L209.784633,53.3994547 L200.262331,26.3083068 L206.828206,26.3083068 L212.566741,44.7721222 Z" id="Shape"></path>
            <path d="M52.0289892,25.7249225 L52.0029103,25.7138206 C51.9878285,25.7079555 51.9729353,25.7027187 51.9598435,25.6893755 C51.9163158,25.6425801 51.8969608,25.5781683 51.9074343,25.5150343 L53.35437,16.655987 L60.1398,23.4530468 L53.0829524,26.459797 C53.0636812,26.4677568 53.0423153,26.4717367 53.0211799,26.4708988 L52.993111,26.4708988 C52.9838944,26.4650337 52.9744683,26.4577023 52.9556998,26.4390386 C52.6930715,26.1462069 52.3790206,25.9041338 52.0291359,25.7248408 L52.0289892,25.7249225 Z M61.8711404,25.1850554 L69.1264099,32.450748 C70.6332391,33.9616242 71.3875943,34.7151876 71.6627572,35.5887202 C71.7039598,35.7180884 71.7376215,35.8473979 71.763847,35.9804988 L54.4249566,28.6267014 C54.4157399,28.6227215 54.4063138,28.618951 54.3968877,28.6155995 C54.3276372,28.5874887 54.2471382,28.5556285 54.2471382,28.484388 C54.2471382,28.4131475 54.3294805,28.379402 54.398731,28.3513122 L54.421228,28.3420956 L61.8711404,25.1850554 Z M71.468087,38.3124189 C71.0937153,39.017245 70.3636921,39.7483114 69.1282804,40.9873783 L60.9483218,49.1772176 L50.3686651,46.9708932 L50.3125274,46.9597913 C50.2189156,46.9447095 50.119732,46.927931 50.119732,46.8435778 C50.0384998,45.9600953 49.5944398,45.1501052 48.8936773,44.6072616 C48.8506104,44.5641528 48.861838,44.4966618 48.8750346,44.4348056 C48.8750346,44.4255889 48.8750346,44.4161628 48.878805,44.4084544 L50.8685718,32.1752437 L50.8759032,32.1339992 C50.8870051,32.0402617 50.9039721,31.9315472 50.9882206,31.9315472 C51.8495768,31.8242361 52.6318584,31.3751363 53.1595615,30.6849834 C53.1763191,30.6663407 53.1876304,30.6456032 53.2101065,30.6343547 C53.2699937,30.606223 53.3411294,30.6343547 53.4029019,30.6607059 L71.4661955,38.312555 L71.468087,38.3124189 Z M59.0671187,51.0611249 L45.6160541,64.5315277 L47.9184222,50.3600524 L47.9221927,50.3414097 C47.9240507,50.3227669 47.9280578,50.3039356 47.9332945,50.2870524 C47.9519373,50.2420584 48.0006808,50.2233109 48.0474762,50.2045634 L48.0699732,50.1953468 C48.5740922,49.9799433 49.0199537,49.6478006 49.3709047,49.2262124 C49.4158358,49.1737194 49.4701093,49.1231117 49.5393598,49.1137275 C49.5573742,49.1107949 49.5756608,49.1107949 49.5936333,49.1137275 L59.0651602,51.0632426 L59.0671187,51.0611249 Z M42.7689781,67.3826947 L41.2527876,68.9010678 L24.4904277,44.6408458 C24.484353,44.6320481 24.478069,44.6232504 24.4717849,44.6144945 C24.445706,44.5788638 24.4175114,44.5432541 24.4231043,44.5020096 C24.4231043,44.4720136 24.4438417,44.445788 24.4642859,44.4232911 L24.4829287,44.3988879 C24.5334736,44.323877 24.5765404,44.2489289 24.6233149,44.1683105 L24.6607471,44.1026838 L24.6666122,44.0968186 C24.6929634,44.0518247 24.7171571,44.008695 24.7620673,43.9843337 C24.8013637,43.9656909 24.8556791,43.9732318 24.898725,43.9824757 L43.4692839,47.8177771 C43.5212113,47.825737 43.5701852,47.8471657 43.6115344,47.8796334 C43.6359376,47.9040575 43.6415095,47.9302621 43.6471023,47.9602581 C43.909674,48.9551886 44.6215509,49.7700196 45.5713576,50.1628351 C45.6237668,50.1891863 45.6013326,50.2471883 45.5772227,50.3090446 C45.5650735,50.3362127 45.5555426,50.3644073 45.5491538,50.3933978 C45.3151725,51.8180418 43.3085582,64.0737474 42.7694682,67.3823009 L42.7689781,67.3826947 Z M39.6018205,70.5525355 C38.4843317,71.6603825 37.82544,72.2471099 37.0804461,72.4832969 C36.3458921,72.7159082 35.557561,72.7159082 34.8230028,72.4832969 C33.9507249,72.2058675 33.1963739,71.4523062 31.6895384,69.9414384 L14.856049,53.0837469 L19.2530127,46.2548206 C19.2737502,46.2210751 19.2941944,46.1910791 19.327877,46.1666969 C19.3746515,46.1329514 19.4420587,46.1480542 19.4982174,46.1666969 C20.50744,46.4716128 21.5910178,46.416623 22.5642955,46.0111241 C22.6148404,45.9925061 22.6653854,45.9792639 22.7046818,46.0148946 C22.7245814,46.0326995 22.7419254,46.0529761 22.757091,46.0748656 L39.6018205,70.5544417 L39.6018205,70.5525355 Z M13.2331633,51.4585278 L9.37155043,47.591364 L16.99744,44.3334225 C17.0169206,44.3248342 17.0379304,44.3204354 17.0592125,44.3202259 C17.1228492,44.3202259 17.1603023,44.3839674 17.1940059,44.4420532 C17.2706507,44.560131 17.351799,44.6751841 17.4373421,44.7869673 L17.4617452,44.8169633 C17.4842422,44.8488235 17.4690767,44.8807048 17.4466635,44.9107007 L13.2350129,51.4584482 L13.2331633,51.4585278 Z M7.66255617,45.8799147 L2.77704425,40.9873783 C1.94594671,40.155088 1.3432125,39.5514858 0.923919681,39.0322388 L15.7788676,42.1177243 C15.7975104,42.1212853 15.8162369,42.1244273 15.8350263,42.126941 C15.9267529,42.1420228 16.0278008,42.1588222 16.0278008,42.2450397 C16.0278008,42.3387772 15.9173686,42.3818859 15.8237569,42.4174957 L15.7807109,42.4361385 L7.66255617,45.8799147 Z M0.0703601359,36.5166143 C0.0873690349,36.2014469 0.143898488,35.8896835 0.238813171,35.5887202 C0.515846451,34.7151876 1.26832831,33.9616242 2.77703273,32.450748 L9.02898869,26.1898079 C11.9075731,30.3735425 14.7939623,34.5518854 17.6881375,38.7248156 C17.7386824,38.7922856 17.7948201,38.8672965 17.7368181,38.923518 C17.4635173,39.2253171 17.1902396,39.5552332 16.9974379,39.9132705 C16.976491,39.9592699 16.9443165,39.9992785 16.9038261,40.0295049 C16.879423,40.0445867 16.8532812,40.0387216 16.8252123,40.0332754 L16.8214419,40.0332754 L0.0703601359,36.5147417 L0.0703601359,36.5166143 Z M10.7024276,24.5139747 L19.1051358,16.0954412 C19.8969231,16.4422279 22.773947,17.6587999 25.3439874,18.7460288 C27.2907041,19.5708284 29.065214,20.3206381 29.6230242,20.5643304 C29.679162,20.5868273 29.7297069,20.6093034 29.7540472,20.6655459 C29.769129,20.6992914 29.7613786,20.7424001 29.7540472,20.7780308 C29.4837356,22.0124475 29.8516598,23.3002348 30.7330224,24.2046788 C30.7891602,24.2609213 30.7330224,24.3415041 30.6843418,24.4109012 L30.6582629,24.4502814 L22.1226549,37.6901173 C22.1001579,37.7275914 22.0796089,37.7594726 22.0421558,37.7838548 C21.9972247,37.8119865 21.933567,37.7989366 21.8811788,37.7857128 C21.5491994,37.6986155 21.2079196,37.6520295 20.8647672,37.6470023 C20.557788,37.6470023 20.2245979,37.7032447 19.8876667,37.765101 L19.8858087,37.765101 C19.8483765,37.7709661 19.814673,37.7782976 19.7847189,37.7558844 C19.7516227,37.7287162 19.7231978,37.6965417 19.7004913,37.6602826 L10.7006513,24.5141842 L10.7024276,24.5139747 Z M20.8066353,14.3952383 L31.6895384,3.49669624 C33.1963739,1.98769479 33.9507249,1.23225879 34.8230028,0.956699962 C35.557561,0.724092795 36.3458921,0.724092795 37.0804461,0.956699962 C37.9527261,1.23225879 38.7070791,1.98769479 40.2139147,3.49669624 L42.5724352,5.85860808 L34.832364,17.8631245 C34.8133023,17.898064 34.7870977,17.9286883 34.7556145,17.9530915 C34.7088191,17.9849518 34.6432971,17.9717343 34.5871384,17.9530915 C33.3482496,17.5765832 32.0036521,17.8360611 30.9931978,18.6466692 C30.9426529,18.6991621 30.8678096,18.6691662 30.8041519,18.640804 C29.7933583,18.2002903 21.9316169,14.8729915 20.8066353,14.394987 L20.8066353,14.3952383 Z M44.2159138,7.50444738 L51.3626133,14.6614192 L49.6405146,25.3425155 L49.6405146,25.3706472 C49.6390043,25.3950504 49.6338116,25.4189718 49.6254328,25.4418877 C49.6067901,25.4793617 49.5692951,25.4868817 49.531821,25.4981302 C49.1636286,25.6098191 48.8168545,25.7828177 48.5060525,26.009876 C48.4926464,26.0195116 48.4802668,26.0301945 48.4686203,26.0417363 C48.4478829,26.0642332 48.4274387,26.0848241 48.393756,26.0886921 C48.3663156,26.0894177 48.3390008,26.0850335 48.313257,26.075398 L37.4228717,21.4415497 L37.4021342,21.432333 C37.3328837,21.4042222 37.2504995,21.3704558 37.2504995,21.2992572 C37.1864857,20.6915054 36.9882859,20.1056221 36.67023,19.5840585 C36.6177998,19.497841 36.5597978,19.4078321 36.6046871,19.3197586 L44.2159138,7.50444738 Z M36.855826,23.6366884 L47.0648604,27.9668629 C47.1209981,27.9932141 47.1827915,28.0174707 47.2071109,28.0755774 C47.216956,28.1105378 47.216956,28.1474673 47.2071109,28.1824277 C47.1771359,28.3323867 47.1509732,28.5029763 47.1509732,28.6754323 L47.1509732,28.9622354 C47.1509732,29.0334759 47.0779732,29.0634509 47.0105869,29.0916036 L46.9898495,29.098935 C45.3725755,29.7906379 24.2843854,38.795901 24.2525628,38.795901 C24.2207444,38.795901 24.1870408,38.795901 24.1552434,38.7640408 C24.0991057,38.7078192 24.1552434,38.6290588 24.2057883,38.5578183 C24.2147955,38.5454597 24.2233838,38.5328496 24.2318673,38.5203443 L32.621469,25.5110775 L32.6365507,25.4885805 C32.6852314,25.4098619 32.7413691,25.3217382 32.8312105,25.3217382 L32.915459,25.3349348 C33.1063902,25.361286 33.2748495,25.3855216 33.4451898,25.3855216 C34.718042,25.3855216 35.8973054,24.765055 36.6086041,23.7040684 C36.6255711,23.6757062 36.6470417,23.6504024 36.6722409,23.6290574 C36.7227858,23.5915834 36.7976501,23.6104147 36.8556731,23.6363889 L36.855826,23.6366884 Z M25.1642943,40.8542878 L48.1505267,31.0373525 C48.1505267,31.0373525 48.1842093,31.0373525 48.2160486,31.0692128 C48.3414579,31.1948105 48.4481636,31.2791533 48.5511072,31.3578928 L48.6016521,31.389753 C48.6484266,31.4161042 48.6952639,31.4459746 48.6989715,31.494739 C48.6989715,31.5133817 48.6989715,31.524735 48.6949916,31.5415972 L46.7258114,43.6548324 L46.71848,43.7035758 C46.7052835,43.7973133 46.6924011,43.9041635 46.6042984,43.9041635 C45.5384583,43.9762209 44.5767769,44.5703217 44.0342558,45.491894 L44.0250392,45.5069758 C43.9989603,45.5501055 43.9744943,45.591329 43.9314274,45.613826 C43.892131,45.6324688 43.8415861,45.6249279 43.8004044,45.615684 L25.4694427,41.829126 C25.4507999,41.8253556 25.1849228,40.8562443 25.1642943,40.8543695 L25.1642943,40.8542878 Z" id="path14"></path>
        </g>
    </g>
</svg>