<?xml version="1.0" encoding="UTF-8"?>
<svg width="300px" height="160px" viewBox="0 0 300 160" version="1.1" xmlns="http://www.w3.org/2000/svg" xmlns:xlink="http://www.w3.org/1999/xlink">
    <title>sticker-mule</title>
    <g id="sticker-mule" stroke="none" stroke-width="1" fill="none" fill-rule="evenodd">
        <g transform="translate(22.000000, 62.000000)" fill="#111111">
            <path d="M51.25,33.05 C47.65,33.05 44.35,32.65 41.45,29.75 L45.2,26 C47.1,27.9 49.55,28.15 51.35,28.15 C53.35,28.15 55.4,27.5 55.4,25.75 C55.4,24.6 54.8,23.8 52.95,23.65 L49.35,23.3 C45.2,22.9 42.65,21.1 42.65,16.85 C42.65,12.1 46.85,9.5 51.55,9.5 C55.15,9.5 58.15,10.1 60.35,12.2 L56.8,15.8 C55.45,14.6 53.45,14.25 51.45,14.25 C49.15,14.25 48.2,15.3 48.2,16.45 C48.2,17.3 48.55,18.25 50.6,18.45 L54.2,18.8 C58.75,19.25 61.05,21.65 61.05,25.55 C61.05,30.65 56.7,33.05 51.25,33.05 Z" id="Path" fill-rule="nonzero"></path>
            <path d="M71.05,32.8 C66.35,32.8 64.4,29.5 64.4,26.2 L64.4,14.8 L61.95,14.8 L61.95,10.45 L64.4,10.45 L64.4,3.65 L70.15,3.65 L70.15,10.45 L74.2,10.45 L74.2,14.8 L70.15,14.8 L70.15,25.85 C70.15,27.15 70.75,27.95 72.15,27.95 L74.25,27.95 L74.25,32.8 L71.05,32.8 L71.05,32.8 Z" id="Path" fill-rule="nonzero"></path>
            <path d="M76.75,5.85 L76.75,1.15 L82.65,1.15 L82.65,5.85 L76.75,5.85 Z M76.85,32.8 L76.85,9.8 L82.6,9.8 L82.6,32.8 L76.85,32.8 Z" id="Shape" fill-rule="nonzero"></path>
            <path d="M95.55,33.05 C90.95,33.05 85.25,30.6 85.25,21.25 C85.25,11.95 90.95,9.5 95.55,9.5 C98.75,9.5 101.1,10.45 103.15,12.6 L99.25,16.5 C98.05,15.2 97.05,14.7 95.55,14.7 C94.2,14.7 93.1,15.2 92.3,16.2 C91.4,17.3 91,18.85 91,21.3 C91,23.75 91.4,25.3 92.3,26.45 C93.15,27.45 94.2,27.95 95.55,27.95 C97.05,27.95 98.05,27.4 99.25,26.15 L103.15,30 C101.1,32.05 98.75,33.05 95.55,33.05 Z" id="Path" fill-rule="nonzero"></path>
            <polygon id="Path" fill-rule="nonzero" points="119 32.8 113.35 23.2 110.9 25.95 110.9 32.8 105.15 32.8 105.15 1.35 110.9 1.35 110.9 19.2 118.55 9.8 125.5 9.8 117.3 19.1 126.15 32.85 119 32.85"></polygon>
            <path d="M130.9,23.05 C130.9,26 132.7,28.15 135.95,28.15 C138.45,28.15 139.7,27.45 141.15,26 L144.65,29.4 C142.3,31.75 140.05,33 135.9,33 C130.45,33 125.25,30.55 125.25,21.2 C125.25,13.7 129.3,9.45 135.3,9.45 C141.7,9.45 145.35,14.15 145.35,20.45 L145.35,23 L130.9,23 L130.9,23.05 Z M139.15,16.65 C138.55,15.3 137.25,14.25 135.3,14.25 C133.35,14.25 132.05,15.25 131.45,16.65 C131.1,17.5 130.95,18.1 130.9,19.1 L139.65,19.1 C139.6,18.1 139.5,17.5 139.15,16.65 Z" id="Shape" fill-rule="nonzero"></path>
            <path d="M160.55,16.05 C159.65,15.15 158.9,14.7 157.5,14.7 C155.75,14.7 153.8,16.05 153.8,18.95 L153.8,32.8 L148.05,32.8 L148.05,9.8 L153.65,9.8 L153.65,12 C154.75,10.65 156.95,9.55 159.45,9.55 C161.7,9.55 163.3,10.1 164.9,11.7 L160.55,16.05 Z" id="Path" fill-rule="nonzero"></path>
            <path d="M23.75,35.35 C23.4,35.5 22.95,35.45 22.5,35.5 C22.1,35.5 21.55,35.5 21.3,35.3 C21.15,35.2 21.15,34.95 21.15,34.8 C21.15,34.65 21.2,34.4 21.2,34.25 C21.25,34.05 21.3,33.75 21.2,33.6 C21.1,33.45 20.75,33.5 20.55,33.4 C20.35,33.3 20.3,33 20.25,32.7 C20.25,32.6 20.15,32.5 20.15,32.45 C20.1,32 20.25,31.35 20.35,30.9 C20.45,30.4 20.6,29.95 20.7,29.45 C20.85,28.75 20.85,27.95 20.8,27.2 C20.8,26.8 20.7,26.5 20.8,26.2 C20.85,25.9 21,25.65 21.05,25.35 C21.05,25.25 21.05,25.15 21.05,25.05 C21.05,24.95 21.1,24.9 21.1,24.8 C21.1,24.6 21.05,24.35 21.05,24.1 C21,23.45 21.05,22.5 21.1,21.95 C21.1,21.75 21.2,21.55 21.05,21.45 C20.35,21.45 19.75,21.55 19.1,21.65 C17.4,21.85 15.2,21.9 13.55,21.55 C13.4,21.5 13.25,21.5 13.1,21.5 C11.9,21.25 10.85,20.7 10,20.05 C9.85,19.95 9.7,19.85 9.55,19.7 C9.4,19.6 9.25,19.45 9.1,19.35 C8.45,19.05 7.55,19.4 7.25,19.85 C7.15,20 7.05,20.25 6.95,20.45 C6.85,20.65 6.75,20.85 6.7,21.05 C6.25,22.05 5.75,23.05 5.3,24.05 C5.05,24.65 4.75,25.3 4.55,25.95 C4.15,27.35 4.5,29.2 4.85,30.55 C4.9,30.65 4.95,30.8 5,30.95 C5.1,31.25 5.3,31.7 5.55,31.9 C5.7,32 5.9,32.1 6.05,32.2 C6.25,32.35 6.35,32.65 6.5,32.95 C6.55,33.05 6.65,33.2 6.7,33.35 C6.85,33.65 6.95,33.9 6.6,34.1 C6.35,34.25 5.95,34.25 5.6,34.3 C5.45,34.35 5.5,34.55 5.4,34.65 C5.35,34.7 5.1,34.8 5,34.85 C4.55,35 3.75,35 3.4,34.85 C3.2,34.8 3,34.65 2.95,34.5 C2.85,34.2 3.1,33.85 2.9,33.65 C2.8,33.55 2.6,33.55 2.45,33.5 C2.2,33.4 2,33.15 1.85,32.9 C1.6,32.2 1.75,31.15 1.7,30.3 C1.7,30.05 1.65,29.8 1.65,29.5 C1.65,29 1.5,28.5 1.45,28 C1.4,27.75 1.35,27.55 1.3,27.35 C1.2,27 1.15,26.6 1.05,26.25 C0.95,25.85 0.95,25.45 1.05,25.15 C1.1,25.05 1.2,24.95 1.25,24.85 C1.35,24.65 1.35,24.45 1.35,24.25 C1.3,24.15 1.05,24.25 1,24.15 C0.85,23.05 0.7,22 0.6,20.85 C0.55,20.45 0.55,20.1 0.55,19.7 C0.5,18.95 0.55,18.15 0.45,17.4 C0.4,17.05 0.35,16.7 0.3,16.35 C0.15,15.35 -0.1,14.1 0.1,13.05 C0.25,12.4 0.45,11.85 0.85,11.35 C1.1,11 1.4,10.7 1.7,10.35 C2,10.05 2.35,9.75 2.7,9.5 C2.95,9.35 3.2,9.15 3.45,9 C4,8.75 4.75,8.5 5.55,8.45 C6.35,8.4 7.25,8.4 8,8.55 C8.75,8.7 9.5,8.8 10.25,8.95 C10.95,9.1 11.65,9.3 12.35,9.45 C12.45,9.45 12.5,9.55 12.6,9.55 C12.8,9.6 13.05,9.6 13.3,9.7 C13.95,9.85 14.75,9.95 15.55,9.95 C16.4,9.95 17.15,9.95 17.85,9.75 C17.95,9.7 18.05,9.65 18.15,9.65 C18.25,9.6 18.4,9.6 18.5,9.6 C18.55,9.6 18.65,9.5 18.7,9.45 C19.1,9.25 19.45,9.05 19.8,8.8 C20.1,8.6 20.3,8.45 20.7,8.3 C20.85,8.25 21.05,8.15 21.2,8.1 C21.55,8 21.95,7.9 22.2,7.7 C22.65,7.45 22.95,7.05 23.3,6.7 C23.65,6.4 24.05,6.05 24.45,5.75 C25.25,5.1 26.05,4.55 26.8,3.95 C27.2,3.65 27.6,3.35 28.05,3.1 C28.9,2.6 29.8,2.05 31.05,1.95 C31.55,1.9 32.05,1.9 32.55,1.95 C32.7,1.95 32.85,2.05 33,2 C33.15,1.95 33.25,1.75 33.3,1.6 C33.5,1.25 33.6,1.05 33.8,0.65 C33.9,0.4 33.85,0.15 34.1,0.15 C34.35,0.15 34.3,0.8 34.3,1.05 C34.3,1.35 34.25,1.75 34.3,1.95 C34.35,2.1 34.55,2.3 34.75,2.3 C34.9,2.3 35,2.2 35.1,2.1 C35.25,2 35.35,2 35.45,1.9 C35.65,1.75 35.9,1.5 36.1,1.3 C36.25,1.15 36.55,0.7 36.8,0.75 C37.3,0.8 36.8,1.55 36.7,1.75 C36.45,2.3 36.2,2.75 35.9,3.25 C35.8,3.45 35.5,3.75 35.5,4 C35.5,4.15 35.65,4.25 35.7,4.45 C35.75,4.55 35.75,4.6 35.8,4.7 C35.95,5.1 36.1,5.65 36.25,6.1 C36.35,6.5 36.45,6.9 36.6,7.25 C36.75,7.6 36.95,7.95 37.1,8.35 C37.15,8.45 37.15,8.55 37.2,8.65 C37.5,9.45 37.8,10.35 38.2,11.15 C38.35,11.45 38.55,11.85 38.55,12.3 C38.55,12.8 38.3,13.05 38.05,13.45 C37.95,13.65 37.75,13.95 37.55,14 C37.4,14.05 37.25,14 37.1,14 C36.9,14.05 36.75,14.15 36.6,14.15 C36.15,14.2 35.7,13.85 35.6,13.5 C35.55,13.4 35.6,13.25 35.55,13.1 C35.45,12.55 35.15,12.3 34.8,11.9 C34.55,11.65 34.35,11.5 34.05,11.35 C33.6,11.1 33.15,11 32.65,10.75 C32.5,10.65 32.25,10.55 32.1,10.6 C31.85,10.65 31.6,11.05 31.4,11.3 C30.2,12.9 29.1,14.55 27.95,16.1 C27.15,17.15 26.35,18.2 25.7,19.35 C25.55,19.65 25.45,20 25.3,20.35 C25.2,20.7 25.1,21.05 25,21.45 C24.55,22.75 24.4,24.35 24,25.7 C23.95,25.85 23.95,26 23.9,26.15 C23.7,26.85 23.5,27.65 23.3,28.4 C23.15,28.95 23.1,29.7 23.05,30.4 C23.05,31.1 23,32.05 23.25,32.45 C23.4,32.7 23.85,32.75 24,33 C24.1,33.15 24.2,33.5 24.35,33.7 C24.45,33.85 24.7,34.15 24.65,34.4 C24.65,34.55 24.5,34.7 24.35,34.75 C24.2,34.8 24,34.8 23.85,34.85 C23.85,35.05 23.9,35.25 23.75,35.35 Z" id="Path"></path>
            <path d="M190.7,9.5 C187.85,9.5 185.75,10.4 183.8,12.4 C182.35,10.4 180.25,9.5 177.7,9.5 C175.6,9.5 173.45,10.35 171.95,11.9 L171.95,9.8 L166.35,9.8 L166.35,32.8 L172.1,32.8 L172.1,18.9 C172.1,15.75 174.15,14.7 175.95,14.7 C177.75,14.7 179.75,15.75 179.75,18.9 L179.75,32.8 L185.5,32.8 L185.5,18.75 C185.5,15.75 187.6,14.7 189.35,14.7 C191.15,14.7 193.15,15.75 193.15,18.9 L193.15,32.8 L198.9,32.8 L198.9,18.1 C198.9,15.6 198.25,13.4 196.4,11.55 C195.05,10.25 193,9.5 190.7,9.5 Z" id="Path" fill-rule="nonzero"></path>
            <path d="M215.65,23.7 C215.65,26.85 213.6,27.9 211.8,27.9 C210,27.9 208,26.85 208,23.7 L208,9.75 L202.25,9.75 L202.25,24.5 C202.25,27 202.75,29.2 204.6,31.05 C205.9,32.35 207.75,33.1 210.05,33.1 C212.15,33.1 214.3,32.3 215.8,30.7 L215.8,32.8 L221.4,32.8 L221.4,9.8 L215.65,9.8 L215.65,23.7 L215.65,23.7 Z" id="Path" fill-rule="nonzero"></path>
            <path d="M230.8,25.85 L230.8,1.35 L225.05,1.35 L225.05,26.2 C225.05,29.45 227.05,32.8 231.75,32.8 L235,32.8 L235,27.95 L232.8,27.95 C231.35,27.95 230.8,27.25 230.8,25.85 Z" id="Path" fill-rule="nonzero"></path>
            <path d="M256.1,20.5 C256.1,14.2 252.5,9.5 246.05,9.5 C240.1,9.5 236,13.75 236,21.25 C236,30.55 241.2,33.05 246.65,33.05 C250.8,33.05 253.05,31.75 255.4,29.45 L251.9,26.05 C250.45,27.5 249.2,28.2 246.7,28.2 C243.45,28.2 241.65,26.05 241.65,23.1 L256.05,23.1 L256.05,20.5 L256.1,20.5 Z M241.7,19.15 C241.75,18.15 241.9,17.5 242.25,16.7 C242.85,15.35 244.15,14.3 246.1,14.3 C248.05,14.3 249.3,15.3 249.95,16.7 C250.3,17.55 250.45,18.15 250.5,19.15 L241.7,19.15 Z" id="Shape" fill-rule="nonzero"></path>
        </g>
    </g>
</svg>