<?xml version="1.0" encoding="UTF-8"?>
<svg width="300px" height="160px" viewBox="0 0 300 160" version="1.1" xmlns="http://www.w3.org/2000/svg" xmlns:xlink="http://www.w3.org/1999/xlink">
    <title>twilio</title>
    <g id="twilio" stroke="none" stroke-width="1" fill="none" fill-rule="evenodd">
        <g transform="translate(30.000000, 44.000000)" fill="#111111" fill-rule="nonzero" id="Shape">
            <path d="M34.56,27.12 C34.56,31.2 31.2,34.56 27.12,34.56 C23.04,34.56 19.68,31.2 19.68,27.12 C19.68,23.04 23.04,19.68 27.12,19.68 C31.2,19.68 34.56,23.04 34.56,27.12 L34.56,27.12 Z M27.12,37.44 C23.04,37.44 19.68,40.8 19.68,44.88 C19.68,48.96 23.04,52.32 27.12,52.32 C31.2,52.32 34.56,48.96 34.56,44.88 C34.56,40.8 31.2,37.44 27.12,37.44 L27.12,37.44 Z M72,36 C72,55.92 55.92,72 36,72 C16.08,72 0,55.92 0,36 C0,16.08 16.08,0 36,0 C55.92,0 72,16.08 72,36 Z M62.4,36 C62.4,21.36 50.64,9.6 36,9.6 C21.36,9.6 9.6,21.36 9.6,36 C9.6,50.64 21.36,62.4 36,62.4 C50.64,62.4 62.4,50.64 62.4,36 Z M44.88,37.44 C40.8,37.44 37.44,40.8 37.44,44.88 C37.44,48.96 40.8,52.32 44.88,52.32 C48.96,52.32 52.32,48.96 52.32,44.88 C52.32,40.8 48.96,37.44 44.88,37.44 Z M44.88,19.68 C40.8,19.68 37.44,23.04 37.44,27.12 C37.44,31.2 40.8,34.56 44.88,34.56 C48.96,34.56 52.32,31.2 52.32,27.12 C52.32,23.04 48.96,19.68 44.88,19.68 Z M168.72,14.16 C168.96,14.16 169.2,14.4 169.44,14.64 L169.44,22.32 C169.44,22.8 168.96,23.04 168.72,23.04 L156,23.04 C155.52,23.04 155.28,22.56 155.28,22.32 L155.28,14.88 C155.28,14.4 155.76,14.16 156,14.16 L168.72,14.16 L168.72,14.16 Z M168.48,24.96 L144,24.96 C143.76,24.96 143.28,25.2 143.28,25.68 L140.16,37.68 L139.92,38.4 L136.08,25.68 C136.08,25.44 135.6,24.96 135.36,24.96 L125.76,24.96 C125.52,24.96 125.04,25.2 125.04,25.68 L121.44,37.68 L121.2,38.4 L120.96,37.68 L119.52,31.68 L118.08,25.68 C118.08,25.44 117.6,24.96 117.36,24.96 L98.16,24.96 L98.16,14.64 C98.16,14.4 97.68,13.92 97.2,14.16 L85.2,18 C84.72,18 84.48,18.24 84.48,18.72 L84.48,25.2 L81.36,25.2 C81.12,25.2 80.64,25.44 80.64,25.92 L80.64,35.04 C80.64,35.28 80.88,35.76 81.36,35.76 L84.48,35.76 L84.48,47.04 C84.48,54.96 88.8,58.56 96.72,58.56 C100.08,58.56 103.2,57.84 105.36,56.64 L105.36,47.04 C105.36,46.56 104.88,46.32 104.64,46.56 C103.44,47.04 102.24,47.28 101.28,47.28 C99.12,47.28 97.92,46.32 97.92,43.92 L97.92,35.76 L104.88,35.76 C105.12,35.76 105.6,35.52 105.6,35.04 L105.6,27.36 L114.72,57.6 C114.72,57.84 115.2,58.32 115.44,58.32 L125.52,58.32 C125.76,58.32 126.24,58.08 126.24,57.6 L130.56,44.16 L132.72,51.12 L134.64,57.6 C134.64,57.84 135.12,58.32 135.36,58.32 L145.44,58.32 C145.68,58.32 146.16,58.08 146.16,57.6 L155.28,27.36 L155.28,57.6 C155.28,57.84 155.52,58.32 156,58.32 L168.24,58.32 C168.48,58.32 168.96,58.08 168.96,57.6 L168.96,25.68 C168.96,25.44 168.72,24.96 168.48,24.96 L168.48,24.96 Z M184.56,14.16 L172.32,14.16 C172.08,14.16 171.6,14.4 171.6,14.88 L171.6,57.36 C171.6,57.6 171.84,58.08 172.32,58.08 L184.56,58.08 C184.8,58.08 185.28,57.84 185.28,57.36 L185.28,14.64 C185.28,14.4 185.04,14.16 184.56,14.16 Z M200.88,14.16 L188.16,14.16 C187.92,14.16 187.44,14.4 187.44,14.88 L187.44,22.32 C187.44,22.56 187.68,23.04 188.16,23.04 L200.88,23.04 C201.12,23.04 201.6,22.8 201.6,22.32 L201.6,14.64 C201.6,14.4 201.36,14.16 200.88,14.16 L200.88,14.16 Z M200.64,24.96 L188.4,24.96 C188.16,24.96 187.68,25.2 187.68,25.68 L187.68,57.12 C187.68,57.36 187.92,57.84 188.4,57.84 L200.64,57.84 C200.88,57.84 201.36,57.6 201.36,57.12 L201.36,25.68 C201.36,25.44 201.12,24.96 200.64,24.96 Z M239.28,41.28 C239.28,50.4 231.6,58.32 220.8,58.32 C210.24,58.32 202.56,50.4 202.56,41.28 C202.56,32.16 210.24,24.24 221.04,24.24 C231.6,24.24 239.28,32.16 239.28,41.28 L239.28,41.28 Z M226.32,41.52 C226.32,38.16 223.92,35.52 221.04,35.76 C217.92,35.76 215.76,38.4 215.76,41.52 C215.76,44.64 218.16,47.28 221.04,47.28 C224.16,47.28 226.32,44.64 226.32,41.52 Z"></path>
        </g>
    </g>
</svg>